<?xml version="1.0" encoding="UTF-8" standalone="no"?>
<svg
   xmlns:dc="http://purl.org/dc/elements/1.1/"
   xmlns:cc="http://creativecommons.org/ns#"
   xmlns:rdf="http://www.w3.org/1999/02/22-rdf-syntax-ns#"
   xmlns:svg="http://www.w3.org/2000/svg"
   xmlns="http://www.w3.org/2000/svg"
   id="svg1107"
   version="1.2"
   viewBox="0 0 1000 1000"
   height="1000pt"
   width="1000pt">
  <metadata
     id="metadata1113">
    <rdf:RDF>
      <cc:Work
         rdf:about="">
        <dc:format>image/svg+xml</dc:format>
        <dc:type
           rdf:resource="http://purl.org/dc/dcmitype/StillImage" />
        <dc:title></dc:title>
      </cc:Work>
    </rdf:RDF>
  </metadata>
  <defs
     id="defs1111" />
  <g
     id="surface35950">
    <path
       id="path1100"
       d="M 570.789062 653.984375 L 570.789062 197.136719 L 492.777344 197.136719 L 492.777344 575.972656 L 570.789062 653.984375 "
       style=" stroke:none;fill-rule:nonzero;fill:rgb(18.821716%,18.821716%,18.821716%);fill-opacity:1;" />
    <path
       id="path1102"
       d="M 830.726562 435.398438 L 720.402344 435.398438 L 591.5625 564.242188 L 298.46875 271.148438 C 290.984375 263.660156 280.75 259.328125 270.195312 259.730469 C 259.609375 259.910156 249.558594 264.394531 242.347656 272.136719 C 168.96875 350.910156 169.035156 450.480469 169.304688 462.078125 C 169.542969 570.308594 231.769531 663.210938 331.8125 704.628906 C 412.605469 738.089844 499.679688 730.328125 570.574219 685.863281 L 513.339844 628.636719 C 460.214844 654.855469 403.320312 649.800781 361.652344 632.558594 C 306.394531 609.675781 247.339844 552.730469 247.316406 461.519531 C 247.316406 461.148438 247.304688 460.566406 247.292969 460.203125 C 247.273438 459.621094 246.386719 415.566406 269.324219 369.175781 C 272.0625 363.636719 279.480469 362.480469 283.851562 366.851562 L 533.8125 616.816406 C 533.773438 616.84375 533.734375 616.863281 533.695312 616.890625 L 589.59375 672.789062 C 589.632812 672.761719 589.667969 672.734375 589.667969 672.734375 L 719.695312 802.699219 L 830.015625 802.699219 L 646.726562 619.40625 L 830.726562 435.398438 "
       style=" stroke:none;fill-rule:nonzero;fill:rgb(18.821716%,18.821716%,18.821716%);fill-opacity:1;" />
    <path
       id="path1104"
       d="M 513.269531 628.566406 C 504.558594 633.082031 493.15625 636.992188 492.777344 637.121094 L 492.777344 802.863281 L 570.789062 802.863281 L 570.789062 686.078125 L 513.269531 628.566406 "
       style=" stroke:none;fill-rule:nonzero;fill:rgb(18.821716%,18.821716%,18.821716%);fill-opacity:1;" />
  </g>
</svg>
